# xmcd
#
# Track frame offsets: 
#        150
#        17992
#        39247
#        56390
#        79500
#        94147
#        116627
#        137767
#
# Disc length: 2021 seconds
#
# Revision: 0
# Processed by: cddbd v1.5.2PL0 Copyright (c) Steve Scherf et al.
# Submitted via: ExactAudioCopy v1.1
#
DISCID=5d07e308
DTITLE=Junior Mance - Harlem Lullaby
DYEAR=1967
DGENRE=Jazz
TTITLE0=The Uptown
TTITLE1=That Mellow Feeling
TTITLE2=Cootin'
TTITLE3=I'm Falling For You
TTITLE4=St. James Infirmary
TTITLE5=Harlem Lullaby
TTITLE6=Run 'Em Round
TTITLE7=What Becomes Of The Brokenhearted
EXTD=
EXTT0=
EXTT1=
EXTT2=
EXTT3=
EXTT4=
EXTT5=
EXTT6=
EXTT7=
PLAYORDER=
